<svg xmlns="http://www.w3.org/2000/svg" xmlns:xlink="http://www.w3.org/1999/xlink" width="300" zoomAndPan="magnify" viewBox="0 0 375 374.999991" height="300" preserveAspectRatio="xMidYMid meet" version="1.0"><defs><g/><clipPath id="id1"><path d="M 238.210938 167.070312 L 294.460938 167.070312 L 294.460938 222.570312 L 238.210938 222.570312 Z M 238.210938 167.070312 " clip-rule="nonzero"/></clipPath></defs><g clip-path="url(#id1)"><path fill="#322c4d" d="M 255.164062 206.507812 L 292.019531 206.507812 C 291.476562 207.734375 290.84375 208.914062 290.128906 210.050781 C 289.410156 211.183594 288.617188 212.261719 287.746094 213.285156 C 286.875 214.304688 285.933594 215.257812 284.921875 216.144531 C 283.914062 217.027344 282.847656 217.835938 281.722656 218.566406 C 280.59375 219.300781 279.421875 219.945312 278.203125 220.507812 C 276.984375 221.070312 275.730469 221.542969 274.445312 221.921875 C 273.15625 222.304688 271.847656 222.59375 270.519531 222.785156 C 269.191406 222.976562 267.855469 223.074219 266.511719 223.074219 L 238.597656 223.074219 C 238.597656 222.53125 238.625 221.988281 238.675781 221.449219 C 238.730469 220.910156 238.808594 220.375 238.914062 219.839844 C 239.023438 219.308594 239.152344 218.785156 239.3125 218.265625 C 239.46875 217.746094 239.652344 217.234375 239.859375 216.734375 C 240.066406 216.230469 240.296875 215.742188 240.554688 215.265625 C 240.808594 214.785156 241.089844 214.320312 241.390625 213.871094 C 241.691406 213.417969 242.015625 212.984375 242.359375 212.5625 C 242.703125 212.144531 243.066406 211.742188 243.449219 211.359375 C 243.835938 210.976562 244.234375 210.609375 244.65625 210.265625 C 245.074219 209.921875 245.511719 209.601562 245.960938 209.296875 C 246.414062 208.996094 246.878906 208.71875 247.355469 208.460938 C 247.835938 208.207031 248.324219 207.976562 248.824219 207.765625 C 249.328125 207.558594 249.835938 207.378906 250.355469 207.21875 C 250.875 207.0625 251.402344 206.929688 251.933594 206.824219 C 252.464844 206.71875 253 206.640625 253.542969 206.585938 C 254.082031 206.53125 254.621094 206.507812 255.164062 206.507812 Z M 292.019531 183.8125 C 291.476562 182.585938 290.84375 181.40625 290.128906 180.269531 C 289.410156 179.132812 288.617188 178.054688 287.746094 177.035156 C 286.875 176.011719 285.933594 175.058594 284.921875 174.175781 C 283.914062 173.289062 282.847656 172.480469 281.722656 171.75 C 280.59375 171.019531 279.421875 170.371094 278.203125 169.808594 C 276.984375 169.246094 275.730469 168.777344 274.445312 168.394531 C 273.15625 168.011719 271.847656 167.726562 270.519531 167.535156 C 269.191406 167.339844 267.855469 167.246094 266.511719 167.246094 L 238.597656 167.246094 C 238.597656 167.789062 238.625 168.328125 238.675781 168.867188 C 238.730469 169.410156 238.808594 169.945312 238.914062 170.476562 C 239.023438 171.007812 239.152344 171.535156 239.3125 172.054688 C 239.46875 172.574219 239.652344 173.082031 239.859375 173.585938 C 240.066406 174.085938 240.296875 174.578125 240.554688 175.054688 C 240.808594 175.535156 241.089844 176 241.390625 176.449219 C 241.691406 176.898438 242.015625 177.335938 242.359375 177.753906 C 242.703125 178.175781 243.066406 178.574219 243.449219 178.960938 C 243.835938 179.34375 244.234375 179.707031 244.65625 180.050781 C 245.074219 180.394531 245.511719 180.71875 245.960938 181.019531 C 246.414062 181.320312 246.878906 181.601562 247.355469 181.855469 C 247.835938 182.113281 248.324219 182.34375 248.824219 182.550781 C 249.328125 182.757812 249.835938 182.941406 250.355469 183.097656 C 250.875 183.257812 251.402344 183.386719 251.933594 183.492188 C 252.464844 183.597656 253 183.679688 253.542969 183.730469 C 254.082031 183.785156 254.621094 183.8125 255.164062 183.8125 Z M 247.003906 203.566406 L 293.140625 203.566406 C 294 200.828125 294.429688 198.027344 294.425781 195.160156 C 294.429688 192.292969 294 189.488281 293.140625 186.753906 L 247.003906 186.753906 C 246.449219 186.753906 245.90625 186.808594 245.363281 186.914062 C 244.820312 187.023438 244.296875 187.183594 243.785156 187.394531 C 243.277344 187.605469 242.792969 187.863281 242.332031 188.171875 C 241.875 188.476562 241.449219 188.824219 241.058594 189.214844 C 240.667969 189.605469 240.320312 190.03125 240.015625 190.488281 C 239.707031 190.949219 239.449219 191.433594 239.238281 191.941406 C 239.027344 192.453125 238.867188 192.976562 238.757812 193.519531 C 238.652344 194.0625 238.597656 194.605469 238.597656 195.160156 C 238.597656 195.710938 238.652344 196.257812 238.757812 196.800781 C 238.867188 197.339844 239.027344 197.867188 239.238281 198.375 C 239.449219 198.886719 239.707031 199.371094 240.015625 199.828125 C 240.320312 200.289062 240.667969 200.710938 241.058594 201.101562 C 241.449219 201.492188 241.875 201.839844 242.332031 202.148438 C 242.792969 202.453125 243.277344 202.714844 243.785156 202.925781 C 244.296875 203.136719 244.820312 203.296875 245.363281 203.402344 C 245.90625 203.511719 246.449219 203.566406 247.003906 203.566406 Z M 247.003906 203.566406 " fill-opacity="1" fill-rule="nonzero"/></g><g fill="#322c4d" fill-opacity="1"><g transform="translate(70.035156, 208.119786)"><g><path d="M 2.09375 0 L 2.09375 -24.84375 L 12.078125 -24.84375 C 15.335938 -24.84375 17.84375 -24.234375 19.59375 -23.015625 C 21.34375 -21.804688 22.21875 -20.070312 22.21875 -17.8125 C 22.21875 -16.738281 21.992188 -15.753906 21.546875 -14.859375 C 21.109375 -13.960938 20.503906 -13.222656 19.734375 -12.640625 C 20.617188 -12.171875 21.347656 -11.492188 21.921875 -10.609375 C 22.492188 -9.722656 22.78125 -8.671875 22.78125 -7.453125 C 22.78125 -5.984375 22.359375 -4.6875 21.515625 -3.5625 C 20.679688 -2.445312 19.507812 -1.570312 18 -0.9375 C 16.5 -0.3125 14.742188 0 12.734375 0 Z M 12.390625 -19.21875 L 8.953125 -19.21875 L 8.953125 -15.328125 L 12.359375 -15.328125 C 13.378906 -15.328125 14.125 -15.492188 14.59375 -15.828125 C 15.0625 -16.171875 15.296875 -16.660156 15.296875 -17.296875 C 15.296875 -18.578125 14.328125 -19.21875 12.390625 -19.21875 Z M 8.953125 -5.640625 L 12.984375 -5.640625 C 13.867188 -5.640625 14.566406 -5.8125 15.078125 -6.15625 C 15.597656 -6.507812 15.859375 -7.035156 15.859375 -7.734375 C 15.859375 -8.410156 15.632812 -8.898438 15.1875 -9.203125 C 14.75 -9.503906 14.015625 -9.65625 12.984375 -9.65625 L 8.953125 -9.65625 Z M 8.953125 -5.640625 "/></g></g></g><g fill="#322c4d" fill-opacity="1"><g transform="translate(101.949919, 208.119786)"><g><path d="M 2.09375 0 L 2.09375 -24.84375 L 9.09375 -24.84375 L 9.09375 -6.09375 L 19.453125 -6.09375 L 19.046875 0 Z M 2.09375 0 "/></g></g></g><g fill="#322c4d" fill-opacity="1"><g transform="translate(130.015554, 208.119786)"><g><path d="M 13.859375 0.34375 C 11.171875 0.375 8.859375 -0.0976562 6.921875 -1.078125 C 4.992188 -2.066406 3.515625 -3.476562 2.484375 -5.3125 C 1.453125 -7.15625 0.9375 -9.375 0.9375 -11.96875 C 0.9375 -14.625 1.5 -16.941406 2.625 -18.921875 C 3.75 -20.910156 5.3125 -22.453125 7.3125 -23.546875 C 9.320312 -24.648438 11.664062 -25.203125 14.34375 -25.203125 C 16.800781 -25.203125 18.941406 -24.6875 20.765625 -23.65625 C 22.597656 -22.632812 24.019531 -21.207031 25.03125 -19.375 C 26.050781 -17.539062 26.5625 -15.390625 26.5625 -12.921875 C 26.5625 -10.304688 26.03125 -8.003906 24.96875 -6.015625 C 23.90625 -4.035156 22.414062 -2.484375 20.5 -1.359375 C 18.59375 -0.242188 16.378906 0.320312 13.859375 0.34375 Z M 13.6875 -5.78125 C 15.476562 -5.78125 16.898438 -6.414062 17.953125 -7.6875 C 19.003906 -8.957031 19.53125 -10.65625 19.53125 -12.78125 C 19.53125 -14.6875 19.035156 -16.210938 18.046875 -17.359375 C 17.054688 -18.503906 15.726562 -19.078125 14.0625 -19.078125 C 12.851562 -19.078125 11.789062 -18.78125 10.875 -18.1875 C 9.96875 -17.59375 9.265625 -16.773438 8.765625 -15.734375 C 8.265625 -14.691406 8.015625 -13.492188 8.015625 -12.140625 C 8.015625 -10.140625 8.515625 -8.578125 9.515625 -7.453125 C 10.523438 -6.335938 11.914062 -5.78125 13.6875 -5.78125 Z M 13.6875 -5.78125 "/></g></g></g><g fill="#322c4d" fill-opacity="1"><g transform="translate(166.269342, 208.119786)"><g><path d="M 14.734375 -14.109375 L 26.140625 -14.109375 L 26.140625 0 L 20.609375 0 L 20.15625 -2.140625 C 19.4375 -1.296875 18.476562 -0.660156 17.28125 -0.234375 C 16.09375 0.179688 14.820312 0.390625 13.46875 0.390625 C 10.925781 0.390625 8.71875 -0.0976562 6.84375 -1.078125 C 4.96875 -2.066406 3.515625 -3.476562 2.484375 -5.3125 C 1.453125 -7.15625 0.9375 -9.351562 0.9375 -11.90625 C 0.9375 -14.539062 1.523438 -16.851562 2.703125 -18.84375 C 3.890625 -20.84375 5.550781 -22.398438 7.6875 -23.515625 C 9.820312 -24.640625 12.3125 -25.203125 15.15625 -25.203125 C 17.789062 -25.203125 19.972656 -24.78125 21.703125 -23.9375 C 23.429688 -23.101562 24.863281 -21.820312 26 -20.09375 L 20.6875 -16.234375 C 20.144531 -17.191406 19.363281 -17.878906 18.34375 -18.296875 C 17.332031 -18.722656 16.28125 -18.9375 15.1875 -18.9375 C 13.039062 -18.9375 11.34375 -18.304688 10.09375 -17.046875 C 8.84375 -15.785156 8.21875 -14.128906 8.21875 -12.078125 C 8.21875 -10.117188 8.757812 -8.585938 9.84375 -7.484375 C 10.9375 -6.390625 12.4375 -5.84375 14.34375 -5.84375 C 15.445312 -5.84375 16.4375 -6.066406 17.3125 -6.515625 C 18.1875 -6.972656 18.796875 -7.625 19.140625 -8.46875 L 14.734375 -8.46875 Z M 14.734375 -14.109375 "/></g></g></g><g fill="#322c4d" fill-opacity="1"><g transform="translate(202.453155, 208.119786)"><g><path d="M 13.859375 0.34375 C 11.171875 0.375 8.859375 -0.0976562 6.921875 -1.078125 C 4.992188 -2.066406 3.515625 -3.476562 2.484375 -5.3125 C 1.453125 -7.15625 0.9375 -9.375 0.9375 -11.96875 C 0.9375 -14.625 1.5 -16.941406 2.625 -18.921875 C 3.75 -20.910156 5.3125 -22.453125 7.3125 -23.546875 C 9.320312 -24.648438 11.664062 -25.203125 14.34375 -25.203125 C 16.800781 -25.203125 18.941406 -24.6875 20.765625 -23.65625 C 22.597656 -22.632812 24.019531 -21.207031 25.03125 -19.375 C 26.050781 -17.539062 26.5625 -15.390625 26.5625 -12.921875 C 26.5625 -10.304688 26.03125 -8.003906 24.96875 -6.015625 C 23.90625 -4.035156 22.414062 -2.484375 20.5 -1.359375 C 18.59375 -0.242188 16.378906 0.320312 13.859375 0.34375 Z M 13.6875 -5.78125 C 15.476562 -5.78125 16.898438 -6.414062 17.953125 -7.6875 C 19.003906 -8.957031 19.53125 -10.65625 19.53125 -12.78125 C 19.53125 -14.6875 19.035156 -16.210938 18.046875 -17.359375 C 17.054688 -18.503906 15.726562 -19.078125 14.0625 -19.078125 C 12.851562 -19.078125 11.789062 -18.78125 10.875 -18.1875 C 9.96875 -17.59375 9.265625 -16.773438 8.765625 -15.734375 C 8.265625 -14.691406 8.015625 -13.492188 8.015625 -12.140625 C 8.015625 -10.140625 8.515625 -8.578125 9.515625 -7.453125 C 10.523438 -6.335938 11.914062 -5.78125 13.6875 -5.78125 Z M 13.6875 -5.78125 "/></g></g></g></svg>