
<svg version="1.0" xmlns="http://www.w3.org/2000/svg"
 width="400" height="100" viewBox="0 0 419.000000 100"
 preserveAspectRatio="xMidYMid meet">
<metadata>
Created by Prashanta
</metadata>
<g transform="translate(0.000000,130.000000) scale(0.100000,-0.100000)"
fill="#322C4D" stroke="none">
<path d="M3055 1068 c17 -103 67 -172 157 -217 l61 -31 354 0 354 0 -23 42
c-35 63 -109 139 -174 178 -101 61 -154 69 -462 69 l-274 1 7 -42z"/>
<path d="M1352 821 c-97 -33 -142 -102 -142 -214 0 -77 11 -111 48 -151 83
-88 255 -88 338 1 40 42 56 89 56 163 0 110 -52 183 -147 209 -56 15 -91 13
-153 -8z m143 -126 c49 -48 26 -162 -36 -184 -37 -13 -91 6 -108 37 -25 47 -4
137 36 161 33 19 82 13 108 -14z"/>
<path d="M2007 830 c-56 -14 -90 -35 -125 -74 -73 -83 -68 -242 9 -313 56 -51
163 -68 234 -39 19 8 35 11 35 5 0 -5 25 -9 55 -9 l55 0 0 125 0 125 -100 0
-100 0 0 -55 c0 -55 0 -55 31 -55 27 0 30 -2 19 -15 -16 -20 -89 -20 -117 0
-35 25 -48 83 -29 128 27 66 128 87 180 38 21 -20 21 -20 69 16 45 33 47 37
34 57 -36 54 -162 88 -250 66z"/>
<path d="M2609 826 c-100 -27 -159 -109 -159 -220 1 -137 82 -216 221 -216
122 0 206 72 224 192 17 112 -42 214 -138 243 -60 18 -86 18 -148 1z m126
-130 c53 -53 37 -154 -29 -181 -84 -35 -151 47 -115 142 23 63 99 84 144 39z"/>
<path d="M200 615 l0 -215 125 0 c139 0 178 10 213 55 29 37 30 103 1 139 -19
24 -19 27 -5 48 25 36 20 101 -10 137 -34 40 -77 51 -211 51 l-113 0 0 -215z"/>
<path d="M750 615 l0 -215 150 0 150 0 0 55 0 55 -85 0 -85 0 0 160 0 160 -65
0 -65 0 0 -215z"/>
<path d="M3166 770 c-52 -10 -101 -63 -111 -119 -5 -33 -2 -51 17 -89 41 -84
31 -82 509 -82 l417 0 11 63 c6 35 11 74 11 87 0 13 -5 52 -11 87 l-11 63
-397 -1 c-218 -1 -414 -5 -435 -9z"/>
<path d="M3277 429 c-115 -27 -202 -120 -222 -237 l-7 -43 309 3 309 3 78 38
c89 45 167 117 209 195 l28 52 -333 -1 c-183 -1 -350 -5 -371 -10z"/>
</g>
</svg>
